<?xml version="1.0" standalone="no"?>
<!DOCTYPE svg PUBLIC "-//W3C//DTD SVG 20010904//EN"
 "http://www.w3.org/TR/2001/REC-SVG-20010904/DTD/svg10.dtd">
<svg version="1.0" xmlns="http://www.w3.org/2000/svg"
 width="700.000000pt" height="700.000000pt" viewBox="0 0 700.000000 700.000000"
 preserveAspectRatio="xMidYMid meet">
<metadata>
Created by potrace 1.11, written by Peter Selinger 2001-2013
</metadata>
<g transform="translate(0.000000,700.000000) scale(0.100000,-0.100000)"
fill="#000000" stroke="none">
<path d="M2650 6650 c-465 -193 -854 -354 -865 -359 -11 -6 -141 -60 -290
-121 -148 -61 -281 -116 -295 -121 -14 -6 -59 -25 -100 -43 l-75 -31 -271
-655 c-150 -360 -288 -693 -307 -740 -43 -102 -87 -209 -291 -703 l-157 -377
97 -233 c53 -127 118 -286 146 -352 27 -66 64 -156 83 -200 18 -44 147 -354
285 -690 139 -335 289 -698 334 -805 l82 -195 414 -172 c228 -94 431 -178 450
-187 19 -8 100 -42 180 -74 144 -59 840 -347 1228 -508 l202 -84 643 265 c353
146 651 270 662 275 11 5 180 75 375 156 195 80 371 153 390 161 19 8 118 49
219 91 l185 77 54 130 c30 72 60 144 67 160 7 17 84 201 170 410 184 445 233
563 245 590 5 11 47 112 93 225 47 113 155 375 241 583 l156 377 -130 318
c-72 174 -137 331 -145 347 -7 17 -45 109 -85 205 -88 216 -307 744 -325 785
-7 17 -79 190 -159 385 -80 195 -155 374 -165 396 -18 39 -26 44 -133 88 -62
26 -122 51 -133 56 -11 5 -245 102 -520 215 -275 114 -536 222 -580 240 -260
110 -1123 465 -1128 465 -1 -1 -382 -158 -847 -350z m1230 126 c195 -81 369
-153 385 -161 17 -7 174 -72 350 -145 176 -73 334 -138 350 -145 17 -7 120
-50 230 -95 110 -45 229 -95 265 -110 36 -15 155 -65 265 -110 l200 -83 212
-511 c117 -281 289 -698 383 -926 94 -228 177 -428 185 -445 7 -16 61 -146
119 -287 l106 -258 -81 -197 c-45 -109 -87 -211 -94 -228 -8 -16 -84 -201
-170 -410 -87 -209 -163 -393 -170 -410 -16 -34 -93 -221 -170 -410 -29 -71
-110 -266 -179 -433 -69 -167 -126 -307 -126 -312 0 -21 -1 -22 -910 -396
-206 -85 -384 -159 -395 -164 -11 -5 -195 -82 -410 -170 -214 -88 -415 -171
-445 -184 -30 -14 -106 -45 -168 -70 l-113 -47 -522 217 c-287 119 -810 335
-1162 481 -352 146 -653 271 -670 278 -16 7 -39 16 -50 19 -14 4 -32 36 -62
109 -23 56 -110 266 -193 467 -84 201 -205 493 -270 650 -64 157 -204 493
-309 748 l-192 464 47 111 c25 62 52 126 60 142 7 17 115 278 239 580 124 303
234 568 244 590 10 22 107 257 216 521 l199 482 346 143 c190 78 534 221 765
316 231 96 571 237 755 313 184 76 382 159 440 184 58 25 114 44 125 42 11 -2
180 -70 375 -150z"/>
<path d="M2670 4213 c-190 -30 -296 -68 -410 -145 -192 -130 -302 -340 -301
-573 2 -261 115 -476 321 -610 172 -112 374 -156 623 -134 128 12 341 75 361
108 7 11 14 56 21 141 4 41 8 92 11 113 7 64 -18 43 -65 -53 -94 -194 -226
-275 -446 -274 -155 1 -274 44 -395 145 -167 139 -262 360 -254 591 5 139 23
214 77 328 48 103 147 207 244 258 189 99 448 100 597 1 79 -52 166 -181 191
-281 11 -44 37 -36 31 10 -3 20 -7 69 -11 107 -9 100 -16 159 -22 168 -13 21
-165 80 -238 91 -49 8 -301 15 -335 9z"/>
<path d="M3497 4188 c-18 -11 -3 -18 49 -23 76 -7 106 -19 128 -49 21 -27 21
-38 22 -620 1 -646 1 -652 -54 -675 -25 -10 -76 -18 -130 -20 -13 -1 -22 -6
-20 -13 6 -16 550 -16 556 1 2 6 -2 11 -10 12 -120 6 -148 15 -175 56 -15 23
-17 61 -18 329 l-1 304 437 0 c341 0 438 -3 441 -12 2 -7 4 -141 3 -298 -2
-312 -5 -333 -59 -358 -15 -8 -53 -15 -83 -17 -30 -1 -59 -7 -66 -14 -8 -8 -7
-11 4 -12 18 -1 552 -1 559 0 2 1 -1 6 -7 12 -7 7 -36 13 -66 14 -70 4 -112
26 -126 66 -8 22 -10 213 -8 630 l2 597 24 26 c25 27 48 34 124 40 49 4 65 11
55 22 -11 11 -550 6 -561 -5 -6 -6 -7 -11 -2 -12 135 -8 168 -19 191 -67 15
-32 17 -71 18 -300 l1 -262 -440 2 -440 3 -1 250 c0 152 4 266 11 290 14 50
52 73 130 78 33 2 61 9 63 15 2 7 0 12 -5 12 -147 5 -538 3 -546 -2z"/>
</g>
</svg>
